<svg viewBox="0 0 75 25">
<g>
	<g>
		<path fill-rule="evenodd" clip-rule="evenodd" fill="#DC242E" d="M12.9,8.6C11.7,8.3,9.9,8,8.8,8C3.9,8,0,10.9,0,16.2
			c0,5.4,3.8,8.2,8.3,8.2c1.3,0,3.4-0.3,4.6-0.9v-4.2c-1,0.4-2.2,0.6-3.2,0.6c-2,0-4.3-1.2-4.3-3.6c0-2.8,2.2-3.8,4.4-3.8
			c1,0,2.2,0.3,3.1,0.6V8.6z"/>
		<path fill-rule="evenodd" clip-rule="evenodd" fill="#DC242E" d="M61.4,24.3c2.1,0,3.5-0.8,4.6-2v1.6h5.3v-9c0-2.2-0.4-3.8-1.6-5
			c-1.2-1.2-3.2-1.9-6-1.9c-2.3,0-4.4,0.6-6.4,1.2v4c1.8-0.7,3.9-1,5.5-1c2.1,0,3.1,0.9,3.1,2.6v0.3c-0.9-0.3-2.3-0.6-3.8-0.6
			c-3.7,0-6.2,1.7-6.2,4.9v0.1C56.1,22.6,58.4,24.3,61.4,24.3z M63.3,20.8c-1.1,0-1.9-0.6-1.9-1.7v-0.1c0-1.2,0.9-1.9,2.5-1.9
			c0.8,0,1.5,0.2,2.1,0.5C66.1,19.6,64.9,20.8,63.3,20.8z"/>
		<path fill-rule="evenodd" clip-rule="evenodd" fill="#DC242E" d="M39.5,8.5h5.3v2.4l0.2-0.3C46,9.2,47.4,8,49.6,8
			c3.3,0,5.2,2.1,5.2,5.7v10.2h-5.3v-8.5c0-1.8-0.9-2.8-2.3-2.8c-1.4,0-2.4,1-2.4,2.8v8.5h-5.3V8.5z"/>
		<g>
			<g>
				<path fill-rule="evenodd" clip-rule="evenodd" fill="#DC242E" d="M37.9,22c-1.7,1.1-3.9,2.3-6.7,2.3c-2,0-3.8-0.6-5.1-1.6
					C23.3,24,21.2,24.4,19,24c-3.5-0.6-4-3.7-4-5.7V8.6h4.9c0,0,0,4.7,0.1,8.1c0.1,2.8,0.7,4.2,3.8,3.4c-0.5-1.1-0.8-2.5-0.8-3.9
					c0.1-4.5,3.6-8.6,8.2-8.6c5.3,0,6.5,4.5,4.6,7.5c-1.2,1.9-3,3.5-4.9,4.8c1.9,1.4,4.9,0.4,7-0.9V22z M32.2,15.2
					c1.8-2.3,0.4-3.6-1.2-3.3c-1.4,0.3-3.6,2.6-1.8,5.9C30.4,17,31.5,16.1,32.2,15.2z"/>
			</g>
			<circle fill-rule="evenodd" clip-rule="evenodd" fill="#DC242E" cx="17.5" cy="3.5" r="2.9"/>
		</g>
	</g>
	<g>
		<path fill="#DC242E" d="M74,22c0.5,0,1,0.4,1,1c0,0.6-0.4,1-1,1c-0.5,0-1-0.4-1-1C73.1,22.4,73.5,22,74,22z M74,23.8
			c0.5,0,0.8-0.4,0.8-0.8c0-0.5-0.4-0.8-0.8-0.8c-0.5,0-0.8,0.4-0.8,0.8C73.2,23.4,73.6,23.8,74,23.8z M73.7,22.4h0.4
			c0.3,0,0.4,0.1,0.4,0.3c0,0.2-0.1,0.3-0.3,0.3l0.3,0.5h-0.2L74,23.1h-0.2v0.5h-0.2V22.4z M73.8,22.9H74c0.2,0,0.3,0,0.3-0.2
			c0-0.2-0.1-0.2-0.3-0.2h-0.2V22.9z"/>
	</g>
</g>
</svg>
