<?xml version="1.0" encoding="utf-8"?>
<!-- Generator: Adobe Illustrator 18.1.1, SVG Export Plug-In . SVG Version: 6.00 Build 0)  -->
<!DOCTYPE svg PUBLIC "-//W3C//DTD SVG 1.1//EN" "http://www.w3.org/Graphics/SVG/1.1/DTD/svg11.dtd">
<svg version="1.1" id="Layer_1" xmlns="http://www.w3.org/2000/svg" xmlns:xlink="http://www.w3.org/1999/xlink" x="0px" y="0px"
   viewBox="0 0 160 173" enable-background="new 0 0 160 173" xml:space="preserve">
<path fill="#43C9F7" d="M79.6,10c1,0,1.9,0.2,2.6,0.6l65,35.8c1.4,0.8,2.8,2.8,2.8,4.4v71.4c0,1.6-1.4,3.6-2.8,4.4l-64.9,35.8
  c-0.7,0.4-1.7,0.6-2.7,0.6c-1,0-1.9-0.2-2.7-0.6l-64.5-35.8c-1.4-0.8-2.4-2.8-2.4-4.4V50.8c0-1.6,1-3.6,2.4-4.4L77,10.6
  C77.8,10.2,78.6,10,79.6,10 M79.6,0c-2.7,0-5.3,0.6-7.5,1.8L7.6,37.6C2.9,40.2,0,45.5,0,50.8v71.4c0,5.3,2.9,10.6,7.6,13.2
  l64.6,35.8c2.2,1.2,4.7,1.8,7.4,1.8s5.3-0.6,7.4-1.8l65-35.8c4.7-2.6,8-7.9,8-13.2V50.8c0-5.3-3.4-10.6-8-13.2L87.1,1.8
  C84.9,0.6,82.3,0,79.6,0L79.6,0z"/>
<g>
  <path fill="#A1E7FF" d="M89.1,115.8C89.1,115.8,89.1,115.8,89.1,115.8l0,25.9c0,0,0,0,0,0l43.4-24.3c0,0,0,0,0,0l0.8-1.3
    c0,0,0,0,0,0V91.2c0,0,0,0,0,0L89.1,115.8z M79.3,96.7C79.3,96.7,79.3,96.7,79.3,96.7l0,14.5c0,0,0,0,0,0l1.1-0.6c0,0,0,0,0,0
    l52.9-29.4c0,0,0,0,0,0V66.7c0,0,0,0,0,0L79.3,96.7z"/>
</g>
<g>
  <path fill="#009EEF" d="M131.3,56.5c1.4,0.8,1.4,2.1,0,2.9L27.5,116.5c-1.4,0.8-2.6,0.1-2.6-1.6V61c0-1.6,1.2-3.7,2.6-4.4
    l49.2-27.1c1.4-0.8,3.8-0.8,5.3,0L131.3,56.5z"/>
</g>
<path fill="#43C9F7" d="M25.6,115.6c-0.5,0.3-0.5,0.9,0,1.2l51.5,28.9c1,0.5,2.1-0.2,2.1-1.3l0-56.6L25.6,115.6z"/>
</svg>
