<svg viewBox="0 0 400 400">
	<polygon fill="#009EEF" points="128.9,106.4 128.9,221.5 23.6,221.5 121.5,95"/>
	<polygon fill="#005957" points="18.3,236.3 128.9,236.3 128.9,331"/>
	<polygon fill="#F06034" points="303.7,118.9 143.7,118.9 143.7,105.1 203.3,14.8 270.8,118.3 285.2,95"/>
	<polygon fill="#009999" points="383,221.5 143.7,221.5 143.7,136.8 317.5,136.8"/>
	<polygon fill="#43C9F7" points="141.2,344.9 141.2,233.8 395.1,233.8 203.3,398.1"/>
	<path fill="#FFFFFF" d="M388.3,236.3l-185,158.5l-59.6-51V236.3H388.3 M401.9,231.3h-13.5H143.7h-5v5v107.4v2.3l1.7,1.5l59.6,51
		l3.3,2.8l3.3-2.8l185-158.5L401.9,231.3L401.9,231.3z"/>
</svg>
