<?xml version="1.0" encoding="utf-8"?>
<!-- Generator: Adobe Illustrator 18.1.1, SVG Export Plug-In . SVG Version: 6.00 Build 0)  -->
<!DOCTYPE svg PUBLIC "-//W3C//DTD SVG 1.1//EN" "http://www.w3.org/Graphics/SVG/1.1/DTD/svg11.dtd">
<svg version="1.1" id="Layer_1" xmlns="http://www.w3.org/2000/svg" xmlns:xlink="http://www.w3.org/1999/xlink" x="0px" y="0px"
   viewBox="0 0 350 260" enable-background="new 0 0 350 260" xml:space="preserve">
<g>
  <path fill="#43C9F7" d="M174,13.5c1,0,1.9,0.2,2.6,0.6l65,35.9c1.4,0.8,2.4,2.8,2.4,4.4v71.5c0,1.6-1,3.7-2.4,4.4l-65.1,35.9
    c-0.7,0.4-1.6,0.6-2.6,0.6c-1,0-1.9-0.2-2.6-0.6l-65-35.9c-1.4-0.8-2.4-2.8-2.4-4.4V54.4c0-1.7,1-3.7,2.4-4.4l65.1-35.9
    C172.2,13.7,173,13.5,174,13.5 M174,3.5c-2.7,0-5.3,0.6-7.4,1.8l-65,35.9C96.9,43.7,94,49,94,54.4v71.5c0,5.3,2.9,10.6,7.6,13.2
    l65.1,35.9c2.2,1.2,4.7,1.8,7.4,1.8c2.7,0,5.2-0.6,7.4-1.8l65-35.9c4.7-2.6,7.6-7.9,7.6-13.2V54.4c0-5.3-2.9-10.6-7.6-13.2
    L181.3,5.3C179.2,4.1,176.7,3.5,174,3.5L174,3.5z"/>
</g>
<g>
  <path fill="#A1E7FF" d="M184,119.2C184,119.2,184,119.2,184,119.2l0,25.9c0,0,0,0,0,0l44.2-24.3c0,0,0,0,0,0l0.8-1.3c0,0,0,0,0,0
    V94.6c0,0,0,0,0,0L184,119.2z M174,100.1C174,100.1,174,100.1,174,100.1l0,14.6c0,0,0,0,0,0l1.1-0.6c0,0,0,0,0,0L229,84.6
    c0,0,0,0,0,0V70c0,0,0,0,0,0L174,100.1z M174,90C174,90,174,90,174,90l0,0.1c0,0,0,0,0,0l0.8-0.5c0,0,0,0,0,0L174,90z"/>
</g>
<g>
  <path fill="#009EEF" d="M226.4,59.7c1.4,0.8,1.4,2.1,0,2.9l-104.7,57.6c-1.4,0.8-2.6,0.1-2.6-1.6V64.1c0-1.7,1.2-3.7,2.6-4.4
    l49.7-27.4c1.4-0.8,3.8-0.8,5.3,0L226.4,59.7z"/>
</g>
<path fill="#43C9F7" d="M119.7,119.2c-0.5,0.3-0.5,0.9,0,1.2l52.1,29c1,0.5,2.1-0.2,2.1-1.3l0-56.8L119.7,119.2z"/>
<rect x="10" y="197.7" fill="#009EEF" width="42" height="4"/>
<rect x="10" y="221.5" fill="#009EEF" width="35.8" height="4"/>
<rect x="10" y="200.7" fill="#009EEF" width="4" height="55.4"/>
<rect x="296.5" y="197.7" fill="#009EEF" width="42" height="4"/>
<rect x="314" y="197.7" fill="#009EEF" width="4" height="55.4"/>
<rect x="74" y="197.7" fill="#009EEF" width="27.4" height="4"/>
<rect x="74.5" y="221.5" fill="#009EEF" width="27.4" height="4"/>
<polygon fill="#009EEF" points="112.3,253 90.1,221.7 94.9,221.5 117.2,253 "/>
<rect x="74" y="197.7" fill="#009EEF" width="4" height="55.4"/>
<path fill="none" stroke="#009EEF" stroke-width="4" stroke-miterlimit="10" d="M100.8,199.7c8.2,0,13.8,4.4,13.8,11.2
  s-5.6,12.5-13.8,12.5"/>
<g>
  <path fill="#009EEF" d="M173.8,201.7c14.6,0,26.5,10.8,26.5,24s-11.9,24-26.5,24s-26.5-10.8-26.5-24S159.1,201.7,173.8,201.7
     M173.8,197.7c-16.8,0-30.5,12.5-30.5,28s13.7,28,30.5,28s30.5-12.5,30.5-28S190.6,197.7,173.8,197.7L173.8,197.7z"/>
</g>
<g>
  <path fill="#009EEF" d="M267.4,229.1c-1.8-1.3-4-2.4-6.6-3.3c-2.6-0.9-5.7-1.8-9-2.6c-3.2-0.7-6-1.5-8.3-2.3
    c-2.2-0.8-4.1-1.7-5.5-2.7c-1.4-1-2.4-2.1-3.1-3.2c-0.6-1.2-0.9-2.4-0.9-3.8c0-1.4,0.4-2.8,1.1-4.1c0.7-1.3,1.8-2.4,3.2-3.4
    c1.4-0.9,3.1-1.7,5.2-2.2c2.1-0.5,4.5-0.8,7.2-0.8c2.7,0,5.1,0.3,7.2,1c2.1,0.6,3.9,1.5,5.4,2.7c1.5,1.1,2.6,2.5,3.4,4.1
    c0.7,1.4,1.1,2.6,1.1,4.6h4.5c-0.1-2-0.6-3.9-1.5-5.7c-1-1.9-2.4-3.6-4.3-5c-1.9-1.4-4.2-2.6-6.8-3.4c-2.7-0.8-5.7-1.2-9-1.2
    c-3.1,0-6,0.3-8.6,1c-2.6,0.7-4.9,1.6-6.7,2.8c-1.8,1.2-3.3,2.6-4.3,4.3c-1,1.6-1.5,3.5-1.5,5.5c0,2,0.5,3.8,1.4,5.4
    c0.9,1.5,2.3,2.9,4.1,4.1c1.8,1.2,4,2.2,6.5,3.1c2.6,0.9,5.5,1.7,8.7,2.5c3.4,0.8,6.2,1.6,8.5,2.4c2.3,0.8,4.1,1.7,5.5,2.7
    c1.4,1,2.5,2.1,3.1,3.4c0.6,1.2,0.9,2.6,0.9,4.2c0,1.6-0.4,3.1-1.2,4.5c-0.8,1.3-2,2.5-3.5,3.4c-1.5,0.9-3.3,1.6-5.4,2.1
    c-2.1,0.5-4.4,0.7-7,0.7c-2.2,0-4.5-0.2-6.7-0.7c-2.3-0.4-4.3-1.2-6.1-2.2c-1.8-1-3.3-2.5-4.5-4.2c-1.1-1.5-1.7-3.8-1.8-5.8h-4.4
    c0.1,2,0.4,3.4,1,4.7c0.6,1.5,1.5,2.9,2.6,4.1c1.1,1.2,2.4,2.2,3.9,3.1c1.5,0.9,3.2,1.6,4.9,2.1c1.7,0.5,3.6,1,5.5,1.2
    c1.9,0.3,3.8,0.4,5.7,0.4c3.1,0,6.1-0.3,8.7-1c2.7-0.6,5-1.6,6.9-2.7c1.9-1.2,3.4-2.6,4.5-4.3c1.1-1.7,1.6-3.6,1.6-5.7
    c0-2.1-0.5-4-1.4-5.6C270.5,231.8,269.2,230.3,267.4,229.1z"/>
</g>
</svg>
