<svg viewBox="0 0 730 200">
<g>
	<path fill="#009ADE" d="M60.1,49c-2.9-3.4-6.4-6.2-10.6-8.1c-4.2-1.9-9-2.9-14.4-2.9c-4.3,0-8.2,0.6-11.5,1.7
		c-3.2,1.1-5.6,2.2-7.2,3.2v-40L2.9,5.3l-0.1,0v107.3l0.1,0c3.1,0.9,7,1.7,11.8,2.6c4.8,0.9,10.3,1.3,16.6,1.3
		c5.7,0,11-0.9,15.6-2.7c4.6-1.8,8.6-4.4,11.8-7.8c3.3-3.4,5.8-7.5,7.6-12.3c1.8-4.8,2.7-10.3,2.7-16.4c0-5.7-0.8-11.1-2.2-15.9
		C65.2,56.6,63,52.5,60.1,49z M54.7,77.3c0,8.6-2.2,15.4-6.4,20.1c-4.3,4.7-10,7.1-17.1,7.1c-3.6,0-6.7-0.2-9.1-0.5
		c-2.4-0.3-4.2-0.7-5.6-1V55.8c1.6-1.3,3.9-2.6,7-3.8c3-1.2,6.4-1.9,10-1.9c3.8,0,7.1,0.7,9.8,2.1c2.7,1.4,4.9,3.3,6.6,5.7
		c1.7,2.4,3,5.3,3.7,8.6C54.3,69.9,54.7,73.5,54.7,77.3z"/>
	<path fill="#009ADE" d="M103.8,103.7c-1.4-0.4-2.5-1.1-3.4-1.9c-0.8-0.8-1.5-2-1.8-3.4C98.2,97,98,95.1,98,93v-90L84.4,5.3l-0.1,0
		v89.8c0,7.1,1.8,12.4,5.2,15.8c3.5,3.4,9.4,5.2,17.6,5.4l0.1,0l1.9-11.5l-0.1,0C107,104.5,105.2,104.1,103.8,103.7z"/>
	<path fill="#009ADE" d="M167.1,102.9c-0.5,0.2-1.2,0.3-2.2,0.5c-1.1,0.1-2.3,0.3-3.7,0.4c-1.4,0.1-2.8,0.3-4.3,0.4
		c-1.5,0.1-3,0.1-4.4,0.1c-6.7,0-11.6-2-14.4-5.8c-2.8-3.9-4.3-10.4-4.3-19.5V39.8h-13.7v42.1c0,5.1,0.5,9.8,1.6,13.9
		c1.1,4.2,2.8,7.8,5.2,10.9c2.4,3.1,5.6,5.5,9.5,7.2c3.9,1.7,8.8,2.5,14.6,2.5c6.6,0,12.5-0.4,17.5-1.3c5-0.9,9.1-1.7,12.2-2.4
		l0.1,0V39.8h-13.7V102.9z"/>
	<path fill="#009ADE" d="M253.9,47.4c-5.4-6.3-13.2-9.5-23.3-9.5c-4.3,0-8.6,0.8-12.7,2.5c-4.1,1.6-7.8,4.1-11,7.4
		c-3.2,3.3-5.7,7.4-7.6,12.3c-1.9,4.9-2.9,10.8-2.9,17.4c0,5.6,0.8,10.9,2.2,15.6c1.5,4.7,3.8,8.9,6.9,12.3c3.1,3.5,7,6.2,11.8,8.2
		c4.7,2,10.4,3,16.9,3c5.2,0,9.8-0.5,13.9-1.4c4.1-1,7-1.9,8.6-2.7l0.1,0l-1.9-11.3l0-0.2l-0.2,0.1c-1.6,0.8-4,1.6-7.2,2.4
		c-3.2,0.8-7.2,1.2-11.8,1.2c-8.3,0-14.4-2-18.3-6c-3.9-4-6.1-9.8-6.7-17.4h51.1l0-0.1c0.1-0.8,0.1-1.6,0.1-2.5v-2.2
		C262,63.3,259.3,53.7,253.9,47.4z M230.5,49.6c5.4,0,9.7,1.9,12.8,5.8c3.1,3.8,4.6,8.7,4.5,14.6H211c0.3-2.5,0.9-5,1.8-7.4
		c0.9-2.5,2.2-4.7,3.8-6.6c1.6-1.9,3.6-3.5,5.9-4.6C224.8,50.2,227.5,49.6,230.5,49.6z"/>
</g>
<g>
	<g>
		<path fill="#083245" d="M690.4,45.7c0,1.1-0.2,2.1-0.6,3c-0.4,0.9-0.9,1.7-1.5,2.3c-0.6,0.6-1.3,1.1-2.2,1.4
			c-0.8,0.3-1.7,0.5-2.6,0.5c-0.9,0-1.8-0.2-2.6-0.5c-0.8-0.3-1.5-0.8-2.2-1.4c-0.6-0.6-1.1-1.4-1.5-2.3c-0.4-0.9-0.6-1.9-0.6-3
			s0.2-2.1,0.6-3c0.4-0.9,0.9-1.6,1.5-2.3c0.6-0.6,1.3-1.1,2.2-1.4c0.8-0.3,1.7-0.5,2.6-0.5c0.9,0,1.8,0.2,2.6,0.5
			c0.8,0.3,1.5,0.8,2.2,1.4c0.6,0.6,1.1,1.4,1.5,2.3C690.2,43.5,690.4,44.5,690.4,45.7z M688.9,45.7c0-0.9-0.1-1.7-0.4-2.4
			c-0.3-0.7-0.6-1.3-1.1-1.9c-0.5-0.5-1-0.9-1.7-1.2c-0.7-0.3-1.4-0.4-2.2-0.4c-0.8,0-1.5,0.1-2.2,0.4c-0.7,0.3-1.2,0.7-1.7,1.2
			c-0.5,0.5-0.8,1.1-1.1,1.9c-0.3,0.7-0.4,1.5-0.4,2.4c0,0.9,0.1,1.7,0.4,2.4c0.3,0.7,0.6,1.3,1.1,1.9c0.5,0.5,1,0.9,1.7,1.2
			c0.7,0.3,1.4,0.4,2.2,0.4c0.8,0,1.5-0.1,2.2-0.4c0.7-0.3,1.2-0.7,1.7-1.2c0.5-0.5,0.8-1.1,1.1-1.9
			C688.8,47.3,688.9,46.5,688.9,45.7z M685.6,49.6c-0.3-0.6-0.6-1.2-1-1.7c-0.4-0.5-0.7-1-1-1.3h-1.3v3h-1.4v-7.7
			c0.4-0.1,0.7-0.1,1.1-0.2c0.4,0,0.8-0.1,1.1-0.1c1.1,0,2,0.2,2.6,0.6c0.6,0.4,0.9,1.1,0.9,1.9c0,0.5-0.1,0.9-0.4,1.3
			c-0.3,0.4-0.6,0.6-1.1,0.8c0.1,0.2,0.3,0.4,0.5,0.6c0.2,0.2,0.4,0.5,0.5,0.8c0.2,0.3,0.4,0.6,0.6,0.9c0.2,0.3,0.4,0.6,0.5,1H685.6
			z M682.2,45.5h0.8c0.6,0,1.1-0.1,1.5-0.2s0.6-0.5,0.6-1c0-0.5-0.2-0.8-0.6-1c-0.4-0.2-0.8-0.3-1.4-0.3c-0.1,0-0.3,0-0.5,0
			c-0.2,0-0.3,0-0.5,0V45.5z"/>
	</g>
	<g>
		<path fill="#083245" d="M334,48.7c-3.3-3.4-7.2-6-11.8-7.8c-4.6-1.8-9.8-2.7-15.6-2.7c-6.2,0-11.8,0.5-16.5,1.4
			c-4.7,0.9-8.7,1.8-11.9,2.5l-0.1,0v99.3h13.7v-29.8c1.6,1,4,2.1,7.2,3.2c3.3,1.1,7.2,1.7,11.5,1.7c5.4,0,10.2-1,14.4-2.9
			c4.2-1.9,7.7-4.6,10.6-8.1c2.9-3.4,5.1-7.6,6.6-12.4c1.5-4.8,2.2-10.1,2.2-15.7c0-6-0.9-11.5-2.7-16.4
			C339.8,56.2,337.2,52.1,334,48.7z M291.7,51.8c1.3-0.4,3.1-0.7,5.3-1c2.2-0.3,5.4-0.4,9.4-0.4c7.1,0,12.9,2.4,17.1,7
			c4.3,4.6,6.4,11.4,6.4,20c0,3.8-0.4,7.4-1.1,10.7c-0.8,3.3-2,6.2-3.7,8.6c-1.7,2.4-3.9,4.3-6.6,5.7c-2.7,1.4-6,2.1-9.8,2.1
			c-3.6,0-7-0.6-10-1.9c-3-1.2-5.3-2.5-7-3.8V51.8z"/>
		<path fill="#083245" d="M379,103.7c-1.4-0.4-2.5-1.1-3.4-1.9c-0.8-0.8-1.5-2-1.8-3.4c-0.4-1.4-0.6-3.2-0.6-5.4v-90l-13.5,2.3
			l-0.1,0v89.8c0,7.1,1.8,12.4,5.2,15.8c3.5,3.4,9.4,5.2,17.6,5.4l0.1,0l1.9-11.3l0-0.1l-0.1,0C382.2,104.5,380.5,104.1,379,103.7z"
			/>
		<path fill="#083245" d="M443.2,45.9c-2.3-2.5-5.3-4.5-9-5.9c-3.7-1.4-8.3-2.1-13.6-2.1c-4.7,0-9.1,0.4-13.1,1.1
			c-4,0.7-6.9,1.5-8.7,2.2l-0.1,0l1.6,11.2l0,0.2l0.2-0.1c1.6-0.7,4.1-1.3,7.4-1.9c3.3-0.6,7.2-0.9,11.5-0.9c3.4,0,6.2,0.5,8.3,1.5
			c2.1,1,3.8,2.3,5,4c1.2,1.7,2.1,3.6,2.6,5.7c0.5,2.1,0.7,4.3,0.7,6.5v3.6c-0.4-0.1-1-0.2-1.8-0.4c-1-0.2-2.2-0.4-3.4-0.6
			c-1.3-0.2-2.7-0.4-4.1-0.6c-1.4-0.1-2.8-0.2-4.2-0.2c-4.2,0-8.3,0.4-12.1,1.3c-3.8,0.9-7.2,2.2-10.1,4c-2.9,1.8-5.2,4.3-6.9,7.2
			c-1.7,3-2.5,6.6-2.5,10.7c0,4.3,0.7,8.1,2.2,11.1c1.4,3.1,3.5,5.6,6.1,7.5c2.6,1.9,5.7,3.3,9.3,4.1c3.5,0.9,7.5,1.3,11.7,1.3
			c2.9,0,6-0.1,9-0.4c3-0.2,5.9-0.5,8.4-0.8c2.6-0.3,4.9-0.6,7-0.9c2.1-0.3,3.7-0.6,4.8-0.8l0.1,0V66.7c0-4.2-0.5-8.1-1.4-11.6
			C447,51.5,445.4,48.5,443.2,45.9z M436.1,81.8v22.1c-1.6,0.4-3.6,0.6-6,0.8c-2.4,0.1-5.3,0.2-8.4,0.2c-5.2,0-9.4-0.9-12.4-2.8
			c-3-1.8-4.5-5.2-4.5-9.9c0-2.5,0.6-4.6,1.8-6.2c1.2-1.6,2.8-2.8,4.6-3.7c1.8-0.9,3.9-1.5,6.1-1.8c2.2-0.3,4.4-0.4,6.4-0.4
			c3,0,5.7,0.2,7.8,0.5C433.6,81,435.1,81.4,436.1,81.8z"/>
		<path fill="#083245" d="M522.7,47.8c-2.4-3-5.5-5.4-9.5-7.1c-3.9-1.7-8.9-2.5-14.9-2.5c-6.6,0-12.5,0.4-17.6,1.3
			c-5.1,0.9-9.2,1.7-12.2,2.4l-0.1,0v72.9h13.7V51.7c0.5-0.1,1.2-0.2,2.3-0.4c1.1-0.2,2.4-0.4,3.7-0.5c1.4-0.1,2.9-0.3,4.4-0.4
			c1.6-0.1,3-0.1,4.4-0.1c3.5,0,6.5,0.5,8.9,1.4c2.4,0.9,4.3,2.4,5.7,4.3c1.4,2,2.4,4.6,3.1,7.9c0.6,3.2,0.9,7.2,0.9,11.8v39.2h13.7
			V72.7c0-5.1-0.5-9.8-1.4-14C526.7,54.5,525,50.8,522.7,47.8z"/>
		<path fill="#083245" d="M578.1,37.9c-4.3,0-8.6,0.8-12.7,2.5c-4.1,1.6-7.8,4.1-11,7.4c-3.2,3.3-5.7,7.4-7.7,12.3
			c-1.9,4.9-2.9,10.8-2.9,17.4c0,5.6,0.8,10.9,2.2,15.6c1.5,4.7,3.8,8.9,6.9,12.3c3.1,3.5,7,6.2,11.8,8.2c4.7,2,10.4,3,16.9,3
			c5.2,0,9.8-0.5,13.9-1.4c4.1-1,7-1.9,8.6-2.7l0.1,0l-1.9-11.3l0-0.2l-0.2,0.1c-1.6,0.8-4,1.6-7.2,2.4c-3.2,0.8-7.2,1.2-11.8,1.2
			c-8.3,0-14.4-2-18.3-6c-3.9-4-6.1-9.8-6.7-17.4h51.1l0-0.1c0.1-0.8,0.1-1.6,0.1-2.5v-2.2c0-12.8-2.7-22.5-8.1-28.8
			C596,41.1,588.2,37.9,578.1,37.9z M578,49.6c5.4,0,9.7,1.9,12.8,5.8c3.1,3.8,4.6,8.7,4.5,14.6h-36.8c0.3-2.5,0.9-5,1.8-7.4
			c0.9-2.5,2.2-4.7,3.8-6.6c1.6-1.9,3.6-3.5,5.9-4.6C572.2,50.2,574.9,49.6,578,49.6z"/>
		<path fill="#083245" d="M666.9,101.1l0-0.2l-0.2,0.1c-1,0.4-2.7,1-5.1,1.9c-2.4,0.9-5.7,1.4-9.7,1.4c-2.3,0-4.3-0.3-6-0.9
			c-1.7-0.6-3.1-1.5-4.2-2.9c-1.1-1.4-2-3.3-2.6-5.7c-0.6-2.4-0.9-5.5-0.9-9.2V51.3h28.3V39.8h-28.3V16.6l-13.5,2.3l-0.1,0v66.8
			c0,5,0.4,9.4,1.2,13.2c0.8,3.8,2.2,7,4.3,9.6c2,2.6,4.7,4.6,8,5.9c3.3,1.3,7.6,1.9,12.6,1.9c4.3,0,8.2-0.5,11.5-1.5
			c3.3-1,5.7-1.9,7.1-2.5l0.1-0.1L666.9,101.1z"/>
	</g>
</g>
<g>
	<path fill="#083245" d="M344.7,193.4c-0.9,1.1-2,2-3.4,2.8c-1.4,0.8-3.1,1.2-5.1,1.2c-1.2,0-2.4-0.2-3.4-0.5
		c-1-0.3-1.9-0.8-2.7-1.4c-0.8-0.6-1.3-1.4-1.7-2.3c-0.4-0.9-0.6-2-0.6-3.3c0-1.7,0.4-3.1,1.1-4.1c0.7-1.1,1.7-1.9,2.9-2.5
		c1.2-0.6,2.5-1,4-1.3c1.5-0.3,3-0.4,4.6-0.5l4.3-0.1v-1c0-2.1-0.4-3.6-1.3-4.5c-0.9-0.9-2.3-1.4-4.4-1.4c-2,0-3.4,0.3-4.4,1
		c-0.9,0.7-1.5,1.6-1.8,2.7l-3.8-0.4c0.4-2.3,1.5-3.9,3.2-5c1.7-1,4-1.6,6.9-1.6c1.8,0,3.3,0.2,4.5,0.6c1.2,0.4,2.2,1,3,1.8
		c0.8,0.8,1.3,1.8,1.7,3c0.3,1.2,0.5,2.5,0.5,4v16.1h-4V193.4z M344.6,184.4l-4,0.1c-1.7,0.1-3.1,0.2-4.2,0.5c-1.1,0.3-2,0.6-2.7,1
		c-0.7,0.4-1.1,1-1.4,1.6c-0.3,0.6-0.4,1.4-0.4,2.2c0,1.2,0.4,2.2,1.1,3c0.7,0.7,2,1.1,3.7,1.1c2.5,0,4.4-0.6,5.7-1.8
		c1.4-1.2,2.1-2.9,2.1-5V184.4z"/>
	<path fill="#083245" d="M385.6,193.2c-1,1.4-2.2,2.4-3.5,3.2c-1.3,0.8-2.9,1.1-4.7,1.1c-1.8,0-3.4-0.3-4.7-1
		c-1.3-0.7-2.4-1.6-3.3-2.8c-0.9-1.2-1.5-2.5-1.9-4.1c-0.4-1.6-0.6-3.3-0.6-5.1c0-2,0.3-3.9,0.8-5.5c0.5-1.6,1.2-3,2.2-4.2
		c0.9-1.1,2.1-2,3.4-2.6c1.4-0.6,2.9-0.9,4.6-0.9c1.3,0,2.6,0.3,4,0.8c1.3,0.5,2.6,1.5,3.7,3v-12.4h4.2v34.2h-4.1V193.2z
		 M385.7,183.7c0-2-0.2-3.5-0.6-4.6c-0.4-1.1-1.1-2-2.1-2.8c-0.7-0.6-1.4-1-2.1-1.2c-0.7-0.2-1.5-0.3-2.4-0.3c-1,0-2,0.2-2.8,0.5
		c-0.9,0.4-1.6,0.9-2.3,1.7c-0.7,0.8-1.2,1.8-1.5,3c-0.4,1.2-0.6,2.7-0.6,4.5c0,1.8,0.2,3.4,0.6,4.6c0.4,1.2,0.9,2.2,1.6,3
		c0.7,0.7,1.4,1.3,2.2,1.6c0.8,0.3,1.7,0.5,2.5,0.5c0.9,0,1.8-0.1,2.5-0.3c0.7-0.2,1.5-0.6,2.2-1.2c1-0.8,1.7-1.7,2.2-2.9
		c0.5-1.2,0.7-2.6,0.7-4.4V183.7z"/>
	<path fill="#083245" d="M397,162.6h4.5v4.8H397V162.6z M397.2,172h4.2v24.7h-4.2V172z"/>
	<path fill="#083245" d="M405.9,172h4.8l7.4,20.1l7.5-20.1h4.6l-10,24.7h-4.5L405.9,172z"/>
	<path fill="#083245" d="M434.6,162.6h4.5v4.8h-4.5V162.6z M434.8,172h4.2v24.7h-4.2V172z"/>
	<path fill="#083245" d="M449.1,189.5c0.3,1.7,1,2.9,2.2,3.6c1.2,0.7,2.8,1,4.8,1c2.1,0,3.6-0.4,4.5-1.1c0.9-0.7,1.3-1.7,1.3-2.8
		c0-0.5-0.1-0.9-0.2-1.4c-0.1-0.4-0.3-0.8-0.6-1.1c-0.3-0.3-0.8-0.6-1.3-0.9c-0.6-0.3-1.3-0.5-2.2-0.6l-3.2-0.5
		c-1.4-0.2-2.6-0.5-3.7-0.9c-1.1-0.4-1.9-0.8-2.7-1.4c-0.7-0.6-1.3-1.2-1.7-2.1c-0.4-0.8-0.6-1.8-0.6-2.9c0-1.1,0.2-2.2,0.7-3.1
		c0.5-0.9,1.2-1.7,2.1-2.3c0.9-0.6,1.9-1.1,3.1-1.4c1.2-0.3,2.5-0.5,3.9-0.5c1.8,0,3.3,0.2,4.5,0.5c1.2,0.4,2.2,0.8,2.9,1.4
		c0.8,0.6,1.4,1.3,1.8,2.2c0.4,0.8,0.7,1.7,1,2.6l-3.8,0.6c-0.2-0.7-0.5-1.3-0.8-1.8c-0.3-0.5-0.7-0.9-1.1-1.3
		c-0.5-0.3-1.1-0.6-1.7-0.8c-0.7-0.2-1.5-0.3-2.6-0.3c-1.1,0-2.1,0.1-2.9,0.3c-0.8,0.2-1.4,0.5-1.8,0.8c-0.5,0.4-0.8,0.7-1,1.2
		c-0.2,0.4-0.3,0.9-0.3,1.4c0,0.5,0.1,1,0.2,1.4c0.1,0.4,0.4,0.8,0.7,1.1c0.4,0.3,0.8,0.6,1.4,0.8c0.6,0.2,1.4,0.4,2.3,0.6l3.6,0.6
		c2.9,0.5,5,1.3,6.2,2.5c1.3,1.2,1.9,2.9,1.9,5.2c0,1.1-0.2,2-0.6,2.9c-0.4,0.9-1,1.6-1.9,2.3c-0.8,0.7-1.9,1.2-3.1,1.5
		c-1.2,0.4-2.7,0.5-4.4,0.5c-1.5,0-2.9-0.1-4.2-0.4c-1.3-0.3-2.4-0.7-3.4-1.4c-1-0.6-1.8-1.4-2.4-2.5c-0.6-1-1-2.3-1.1-3.7H449.1z"
		/>
	<path fill="#083245" d="M472.3,162.6h4.5v4.8h-4.5V162.6z M472.4,172h4.2v24.7h-4.2V172z"/>
	<path fill="#083245" d="M495.2,197.5c-1.9,0-3.6-0.3-5-0.9c-1.5-0.6-2.7-1.5-3.7-2.6c-1-1.1-1.8-2.5-2.3-4.1
		c-0.5-1.6-0.8-3.4-0.8-5.5c0-2,0.3-3.8,0.9-5.5c0.6-1.6,1.4-3,2.4-4.2c1.1-1.1,2.3-2,3.8-2.7c1.5-0.6,3.1-0.9,5-0.9
		c1.9,0,3.5,0.3,5,0.9c1.5,0.6,2.7,1.5,3.8,2.6c1,1.1,1.8,2.5,2.4,4.1c0.5,1.6,0.8,3.4,0.8,5.4c0,2-0.3,3.9-0.8,5.5
		c-0.6,1.6-1.4,3-2.4,4.2c-1,1.1-2.3,2-3.8,2.7C498.7,197.2,497,197.5,495.2,197.5z M495.2,194.1c1.3,0,2.5-0.2,3.4-0.7
		c1-0.5,1.7-1.1,2.4-2c0.6-0.9,1.1-1.9,1.4-3.1c0.3-1.2,0.4-2.5,0.4-3.9c0-1.4-0.1-2.7-0.4-3.9c-0.3-1.2-0.7-2.2-1.4-3
		c-0.6-0.8-1.4-1.5-2.4-2c-1-0.5-2.1-0.7-3.4-0.7c-1.3,0-2.5,0.2-3.4,0.7c-0.9,0.5-1.7,1.1-2.3,2c-0.6,0.8-1.1,1.9-1.4,3
		c-0.3,1.2-0.4,2.5-0.4,3.9c0,1.4,0.1,2.7,0.4,3.9c0.3,1.2,0.7,2.2,1.3,3.1c0.6,0.9,1.4,1.5,2.3,2S493.9,194.1,495.2,194.1z"/>
	<path fill="#083245" d="M513.7,172h4.1v3.8c1.2-1.6,2.6-2.8,4-3.5c1.5-0.7,3-1.1,4.6-1.1c2.8,0,4.9,0.8,6.2,2.3
		c1.4,1.5,2,3.8,2,6.7v16.5h-4.2v-15.7c0-2.3-0.4-3.9-1.2-4.9c-0.8-0.9-2.1-1.4-3.8-1.4c-0.9,0-1.8,0.2-2.8,0.5
		c-0.9,0.3-1.7,0.8-2.5,1.5c-0.8,0.7-1.4,1.4-1.8,2.2c-0.4,0.8-0.6,1.8-0.6,3v14.6h-4.2V172z"/>
	<path fill="#083245" d="M564.7,197.5c-1.9,0-3.6-0.3-5-0.9c-1.5-0.6-2.7-1.5-3.7-2.6c-1-1.1-1.8-2.5-2.3-4.1
		c-0.5-1.6-0.8-3.4-0.8-5.5c0-2,0.3-3.8,0.9-5.5c0.6-1.6,1.4-3,2.4-4.2c1.1-1.1,2.3-2,3.8-2.7c1.5-0.6,3.1-0.9,5-0.9
		c1.9,0,3.5,0.3,5,0.9c1.5,0.6,2.7,1.5,3.8,2.6c1,1.1,1.8,2.5,2.4,4.1c0.5,1.6,0.8,3.4,0.8,5.4c0,2-0.3,3.9-0.8,5.5
		c-0.6,1.6-1.4,3-2.4,4.2c-1,1.1-2.3,2-3.8,2.7C568.2,197.2,566.5,197.5,564.7,197.5z M564.7,194.1c1.3,0,2.5-0.2,3.4-0.7
		c1-0.5,1.7-1.1,2.4-2c0.6-0.9,1.1-1.9,1.4-3.1c0.3-1.2,0.4-2.5,0.4-3.9c0-1.4-0.1-2.7-0.4-3.9c-0.3-1.2-0.7-2.2-1.4-3
		c-0.6-0.8-1.4-1.5-2.4-2c-1-0.5-2.1-0.7-3.4-0.7c-1.3,0-2.5,0.2-3.4,0.7c-0.9,0.5-1.7,1.1-2.3,2c-0.6,0.8-1.1,1.9-1.4,3
		c-0.3,1.2-0.4,2.5-0.4,3.9c0,1.4,0.1,2.7,0.4,3.9c0.3,1.2,0.7,2.2,1.3,3.1c0.6,0.9,1.4,1.5,2.3,2
		C562.3,193.8,563.4,194.1,564.7,194.1z"/>
	<path fill="#083245" d="M584.4,175.3h-3.9V172h3.9v-2.2c0-1.3,0.2-2.5,0.6-3.4c0.4-1,0.9-1.7,1.6-2.4c0.7-0.6,1.5-1.1,2.4-1.4
		c0.9-0.3,1.9-0.5,2.9-0.5c0.7,0,1.4,0,2.1,0.1c0.7,0.1,1.4,0.2,2.1,0.5l-0.7,3.3c-0.5-0.2-1-0.3-1.5-0.3c-0.5,0-0.9-0.1-1.4-0.1
		c-1.1,0-2.1,0.3-2.9,0.9c-0.8,0.6-1.2,1.7-1.2,3.2v2.2h6.3v3.3h-6.3v21.4h-4.2V175.3z"/>
	<path fill="#083245" d="M632.9,188.4c-0.4,2.8-1.5,5.1-3.3,6.7c-1.8,1.6-4.2,2.4-7.4,2.4c-1.9,0-3.5-0.3-5-0.9
		c-1.5-0.6-2.7-1.5-3.7-2.6c-1-1.1-1.7-2.5-2.2-4.1c-0.5-1.6-0.8-3.4-0.8-5.4c0-2,0.3-3.8,0.8-5.4c0.5-1.6,1.3-3,2.4-4.2
		c1-1.1,2.3-2,3.7-2.7c1.5-0.6,3.1-1,5-1c3,0,5.3,0.7,6.9,2.2c1.6,1.5,2.7,3.5,3.1,6l-4.2,0.8c-0.2-0.8-0.4-1.5-0.6-2.2
		c-0.3-0.7-0.6-1.3-1.1-1.7c-0.5-0.5-1.1-0.9-1.7-1.1c-0.7-0.3-1.5-0.4-2.5-0.4c-1.3,0-2.4,0.2-3.4,0.7c-0.9,0.5-1.7,1.2-2.3,2.1
		c-0.6,0.9-1,1.9-1.3,3.1c-0.3,1.2-0.4,2.4-0.4,3.8c0,1.3,0.1,2.6,0.4,3.8c0.3,1.2,0.7,2.2,1.2,3.1c0.6,0.9,1.3,1.6,2.2,2.1
		c0.9,0.5,2.1,0.8,3.4,0.8c2,0,3.5-0.5,4.5-1.5c1-1,1.6-2.4,1.9-4.2H632.9z"/>
	<path fill="#083245" d="M639.1,162.6h4.5v4.8h-4.5V162.6z M639.3,172h4.2v24.7h-4.2V172z"/>
	<path fill="#083245" d="M672.3,189.8c-0.4,2.4-1.5,4.3-3.2,5.6c-1.7,1.4-4.2,2.1-7.3,2.1c-3.8,0-6.7-1.1-8.7-3.4
		c-2-2.3-3-5.5-3-9.5c0-2.1,0.3-4,0.9-5.7c0.6-1.7,1.4-3,2.4-4.2c1-1.1,2.3-2,3.7-2.6c1.4-0.6,3-0.9,4.7-0.9c1.9,0,3.6,0.3,4.9,0.9
		c1.4,0.6,2.5,1.4,3.4,2.5c0.9,1.1,1.5,2.3,2,3.8c0.4,1.5,0.6,3.1,0.6,4.8v2.1h-18.4c0,1.2,0.2,2.4,0.5,3.5c0.3,1.1,0.8,2,1.4,2.8
		c0.6,0.8,1.4,1.4,2.3,1.8c0.9,0.4,2,0.7,3.2,0.7c2.1,0,3.6-0.4,4.5-1.2c1-0.8,1.6-1.8,2-3.2H672.3z M668.5,182.3
		c0-1.2-0.1-2.3-0.4-3.2c-0.3-1-0.7-1.8-1.2-2.5c-0.5-0.7-1.2-1.2-2.1-1.6c-0.9-0.4-1.9-0.6-3.1-0.6c-2.2,0-3.9,0.7-5.1,2
		c-1.2,1.3-2,3.3-2.2,5.8H668.5z"/>
	<path fill="#083245" d="M679.1,172h4.1v3.8c1.2-1.6,2.6-2.8,4-3.5c1.5-0.7,3-1.1,4.6-1.1c2.8,0,4.9,0.8,6.2,2.3
		c1.4,1.5,2,3.8,2,6.7v16.5H696v-15.7c0-2.3-0.4-3.9-1.2-4.9c-0.8-0.9-2.1-1.4-3.8-1.4c-0.9,0-1.8,0.2-2.8,0.5
		c-0.9,0.3-1.7,0.8-2.5,1.5c-0.8,0.7-1.4,1.4-1.8,2.2c-0.4,0.8-0.6,1.8-0.6,3v14.6h-4.2V172z"/>
	<path fill="#083245" d="M722.8,193.4c-0.9,1.1-2,2-3.4,2.8c-1.4,0.8-3.1,1.2-5.1,1.2c-1.2,0-2.4-0.2-3.4-0.5
		c-1-0.3-1.9-0.8-2.7-1.4c-0.8-0.6-1.3-1.4-1.7-2.3c-0.4-0.9-0.6-2-0.6-3.3c0-1.7,0.4-3.1,1.1-4.1c0.7-1.1,1.7-1.9,2.9-2.5
		c1.2-0.6,2.5-1,4-1.3c1.5-0.3,3-0.4,4.6-0.5l4.3-0.1v-1c0-2.1-0.4-3.6-1.3-4.5c-0.9-0.9-2.3-1.4-4.4-1.4c-2,0-3.4,0.3-4.4,1
		c-0.9,0.7-1.5,1.6-1.8,2.7l-3.8-0.4c0.4-2.3,1.5-3.9,3.2-5c1.7-1,4-1.6,6.9-1.6c1.8,0,3.3,0.2,4.5,0.6c1.2,0.4,2.2,1,3,1.8
		c0.8,0.8,1.3,1.8,1.7,3c0.3,1.2,0.5,2.5,0.5,4v16.1h-4V193.4z M722.7,184.4l-4,0.1c-1.7,0.1-3.1,0.2-4.2,0.5c-1.1,0.3-2,0.6-2.7,1
		c-0.7,0.4-1.1,1-1.4,1.6c-0.3,0.6-0.4,1.4-0.4,2.2c0,1.2,0.4,2.2,1.1,3c0.7,0.7,2,1.1,3.7,1.1c2.5,0,4.4-0.6,5.7-1.8
		c1.4-1.2,2.1-2.9,2.1-5V184.4z"/>
</g>
</svg>
